<svg id="Layer_1" data-name="Layer 1" xmlns="http://www.w3.org/2000/svg" viewBox="0 0 291.5 77.1"><defs><style>.cls-1{fill:#3f1aba;}.cls-2{fill:#fff;}.cls-3{fill:#5022ed;}.cls-4{fill:#f7f7f7;}.cls-5{fill:#e8ae38;}.cls-6{fill:#f1c751;}</style></defs><path class="cls-1" d="M13.7,3A10.73,10.73,0,0,0,3,13.8V66.3A10.8,10.8,0,0,0,13.7,77.1H151.9l23.2-74H13.7Z"/><path class="cls-1" d="M280.7,3H175.1L151.9,77H280.8a10.73,10.73,0,0,0,10.7-10.8V13.7A10.86,10.86,0,0,0,280.7,3Z"/><path class="cls-1" d="M78.6,34.4a4.71,4.71,0,0,1-2.4.6A5.62,5.62,0,0,1,72,33.4a5.56,5.56,0,0,1,0-8,5.6,5.6,0,0,1,4-1.5,5.93,5.93,0,0,1,2.6.6v2.8a3.41,3.41,0,0,0-4.7-.3,3.38,3.38,0,0,0-1,2.5,3.09,3.09,0,0,0,3.2,3.3,3.38,3.38,0,0,0,2.4-1.1v2.7Z"/><path class="cls-1" d="M84.3,24a3.59,3.59,0,0,1,2.7.9,3.37,3.37,0,0,1,.9,2.4,2.89,2.89,0,0,1-.8,2.2,2.75,2.75,0,0,1-1.5.8l3.3,4.4h-3L83,30.5v4.2H80.5V24ZM83,28.9h.6a1.84,1.84,0,0,0,1.5-.5,1.33,1.33,0,0,0,.4-1,1.43,1.43,0,0,0-.5-1.1,2.38,2.38,0,0,0-1.4-.3H83Z"/><path class="cls-1" d="M92.6,29.7,88.8,24h2.9l2.1,3.3L95.9,24h2.9L95,29.7v5H92.5v-5Z"/><path class="cls-1" d="M103.8,24a3.78,3.78,0,0,1,2.8.9,3.33,3.33,0,0,1,1,2.6,3.45,3.45,0,0,1-.9,2.5,3.41,3.41,0,0,1-2.7.9h-1.5v3.7H100V24Zm-1.3,4.9h.9a1.79,1.79,0,0,0,1.3-.4,1.6,1.6,0,0,0,.4-1.1,1.53,1.53,0,0,0-.4-1,1.79,1.79,0,0,0-1.4-.4h-.8Z"/><path class="cls-1" d="M113.4,26.1v8.6h-2.5V26.1h-2.3V24h7.1v2.1Z"/><path class="cls-1" d="M126.2,25.3a5.66,5.66,0,0,1,1.7,4,5.38,5.38,0,0,1-1.7,4,5.49,5.49,0,0,1-4.1,1.6,5.85,5.85,0,0,1-4.2-1.6,5.66,5.66,0,0,1-1.7-4,6,6,0,0,1,1.6-4,5.7,5.7,0,0,1,4.2-1.6A6.57,6.57,0,0,1,126.2,25.3ZM119.7,27a3,3,0,0,0-.9,2.4,3,3,0,0,0,1,2.4,3.08,3.08,0,0,0,2.3.9,3.32,3.32,0,0,0,2.4-.9,3.37,3.37,0,0,0,.9-2.4,3.32,3.32,0,0,0-.9-2.4,3.5,3.5,0,0,0-2.4-.9A3.24,3.24,0,0,0,119.7,27Z"/><path class="cls-1" d="M77.2,51.9h-4l-.8,2H69.8l4.3-10.7h2.3l4.2,10.7H78ZM76.5,50l-1.3-3.6L73.9,50Z"/><path class="cls-1" d="M89.1,53.6a4.71,4.71,0,0,1-2.4.6,5.62,5.62,0,0,1-4.2-1.6,5.56,5.56,0,0,1,0-8,5.6,5.6,0,0,1,4-1.5,5.93,5.93,0,0,1,2.6.6v2.8a3.41,3.41,0,0,0-4.7-.3,3.38,3.38,0,0,0-1,2.5A3.09,3.09,0,0,0,86.6,52,3.38,3.38,0,0,0,89,50.9v2.7Z"/><path class="cls-1" d="M98.6,53.6a4.71,4.71,0,0,1-2.4.6A5.62,5.62,0,0,1,92,52.6a5.56,5.56,0,0,1,0-8,5.6,5.6,0,0,1,4-1.5,5.93,5.93,0,0,1,2.6.6v2.8a3.41,3.41,0,0,0-4.7-.3,3.38,3.38,0,0,0-1,2.5A3.09,3.09,0,0,0,96.1,52a3.38,3.38,0,0,0,2.4-1.1v2.7Z"/><path class="cls-1" d="M106.6,45.3H103v2.1h3.4v2.1H103v2.4h3.6V54h-6V43.2h6Z"/><path class="cls-1" d="M112.4,43.2a3.78,3.78,0,0,1,2.8.9,3.33,3.33,0,0,1,1,2.6,3.45,3.45,0,0,1-.9,2.5,3.41,3.41,0,0,1-2.7.9h-1.5v3.7h-2.5V43.2Zm-1.3,4.9h.9a1.79,1.79,0,0,0,1.3-.4,1.6,1.6,0,0,0,.4-1.1,1.53,1.53,0,0,0-.4-1,1.79,1.79,0,0,0-1.4-.4h-.8Z"/><path class="cls-1" d="M122,45.3v8.6h-2.5V45.3h-2.3V43.2h7.1v2.1Z"/><path class="cls-1" d="M131.7,45.3h-3.6v2.1h3.4v2.1h-3.4v2.4h3.6V54h-6V43.2h6Z"/><path class="cls-1" d="M137,43.2a5.49,5.49,0,0,1,4.2,1.5,5.27,5.27,0,0,1,1.5,3.8,5.11,5.11,0,0,1-1.5,3.8,5.72,5.72,0,0,1-4.2,1.6h-3.5V43.2Zm-.9,8.6h.7a3.58,3.58,0,0,0,2.4-.7,3.3,3.3,0,0,0,1-2.6,3.09,3.09,0,0,0-.9-2.3,3.46,3.46,0,0,0-2.6-.9H136v6.5Z"/><path class="cls-1" d="M202.1,41.6l-1.4,2a4,4,0,0,0-1.5-.3,2.77,2.77,0,0,0-.9.1h-.1a2.73,2.73,0,0,0-1.2.6l-.1.1a3.82,3.82,0,0,0-.9.9c-.9,1.2-1.6,2.8-2.8,4.6a1,1,0,0,1-.4.5,9.78,9.78,0,0,1-3.6,3.1.35.35,0,0,0-.2.1,1.42,1.42,0,0,1-.6.2c-.1,0-.3.1-.4.1a5,5,0,0,1-1.2.2h-.3a6.4,6.4,0,0,1,0-12.8,6.27,6.27,0,0,1,4.5,1.8l-1.4,2.1a4,4,0,0,0-6.1,5.1,4.05,4.05,0,0,0,3,1.4h.3a3.71,3.71,0,0,0,1.5-.4c1.4-.6,2.5-2.1,4.4-5.3a.76.76,0,0,0,.2-.4,9.89,9.89,0,0,1,2.5-2.9l.1-.1c.1,0,.1-.1.2-.1a.52.52,0,0,1,.4-.2c.2-.1.3-.2.5-.2l.1-.1c.1,0,.1-.1.2-.1s.2-.1.3-.1A6,6,0,0,1,202.1,41.6Z"/><path class="cls-1" d="M205.6,46.2v1.9a1.27,1.27,0,0,1-.1.6,6.38,6.38,0,0,1-7.5,5.1,5.79,5.79,0,0,1-3.1-1.6l1.4-2a4.06,4.06,0,0,0,5.6.3,4.52,4.52,0,0,0,1.1-1.7h-4l1.7-2.4Z"/><path class="cls-1" d="M220,46.1a2.17,2.17,0,0,0-1.4-.5,1.57,1.57,0,0,0-1.7,1.7,1.79,1.79,0,0,0,1.8,1.8,2.18,2.18,0,0,0,1.4-.5v1.7a3.1,3.1,0,0,1-1.6.4,3.7,3.7,0,0,1-2.4-.9,3,3,0,0,1-1-2.4,3,3,0,0,1,1.1-2.5,3.16,3.16,0,0,1,2.2-.8,3.29,3.29,0,0,1,1.7.4v1.6Z"/><path class="cls-1" d="M227.3,44.9a3.31,3.31,0,0,1,1,2.4,3.15,3.15,0,0,1-1,2.4,3.92,3.92,0,0,1-5,0,3.31,3.31,0,0,1-1-2.4,3.15,3.15,0,0,1,1-2.4,3.92,3.92,0,0,1,5,0Zm-.7,2.4a1.7,1.7,0,1,0-3.4,0,1.7,1.7,0,1,0,3.4,0Z"/><path class="cls-1" d="M230.9,40.6a1,1,0,1,1-1,1A1,1,0,0,1,230.9,40.6Zm.9,3.6v6.2h-1.7V44.2Z"/><path class="cls-1" d="M233.8,44.2h1.7V45a2.11,2.11,0,0,1,1.9-1,2.44,2.44,0,0,1,1.8.8,2.62,2.62,0,0,1,.5,1.7v3.9H238V47a1.8,1.8,0,0,0-.3-1.2,1,1,0,0,0-.8-.3,1.43,1.43,0,0,0-1.1.5,1.8,1.8,0,0,0-.3,1.2v3.2h-1.7Z"/><path class="cls-1" d="M246.5,44.2h1.7v5.9a3.56,3.56,0,0,1-.9,2.7,3.37,3.37,0,0,1-2.4.9,3.65,3.65,0,0,1-2.3-.7,2.94,2.94,0,0,1-1-1.8h1.9c.1.3.2.6.4.7a1.55,1.55,0,0,0,1.1.3,1.82,1.82,0,0,0,1.1-.4,1.79,1.79,0,0,0,.4-1.4v-.9a2.13,2.13,0,0,1-1.9,1,3.23,3.23,0,0,1-2.1-.8,3.42,3.42,0,0,1-1-2.5,3.55,3.55,0,0,1,1-2.5,3,3,0,0,1,2.1-.8,1.93,1.93,0,0,1,1.9,1ZM243.8,46a1.78,1.78,0,0,0-.6,1.3A1.71,1.71,0,0,0,245,49a2.45,2.45,0,0,0,1.2-.4,1.61,1.61,0,0,0,.6-1.3,1.68,1.68,0,0,0-.5-1.2,1.35,1.35,0,0,0-1.2-.5A1.44,1.44,0,0,0,243.8,46Z"/><path class="cls-1" d="M255,44.2h1.7v6.2H255v-.8a2.23,2.23,0,0,1-1.9,1,3.18,3.18,0,0,1-3.2-3.3A3.1,3.1,0,0,1,253,44a2.28,2.28,0,0,1,2,1Zm-3.3,3.1a1.7,1.7,0,1,0,3.4,0,1.7,1.7,0,1,0-3.4,0Z"/><path class="cls-1" d="M260.5,45.7v4.7h-1.7V45.7h-.7V44.2h.7V42.1h1.7v2.1h1.2v1.5Z"/><path class="cls-1" d="M269,48.7a3,3,0,0,1-3,1.9,3.24,3.24,0,0,1-2.4-.9,3,3,0,0,1-1-2.4,3.37,3.37,0,0,1,.9-2.4,3.22,3.22,0,0,1,2.3-.9,2.86,2.86,0,0,1,2.4,1,3.45,3.45,0,0,1,.7,2.4v.1h-4.6a1.49,1.49,0,0,0,.3,1,1.41,1.41,0,0,0,1.2.6,1.39,1.39,0,0,0,1.4-.8Zm-1.6-2.2a1.42,1.42,0,0,0-1.5-1.2,1.56,1.56,0,0,0-1.5,1.2Z"/><path class="cls-1" d="M204.4,27.9a8.33,8.33,0,0,1-.4,1.5,2.09,2.09,0,0,1-.8,1,2,2,0,0,1-1.1.3,1.68,1.68,0,0,1-1.4-.6l-.5,2.5h-.9l1.3-7.3h.8l-.1.6a2,2,0,0,1,1.6-.7,1.43,1.43,0,0,1,1.2.6,2.41,2.41,0,0,1,.4,1.5v.6Zm-.9-.1v-.4a1.8,1.8,0,0,0-.3-1.1.81.81,0,0,0-.8-.4,1.46,1.46,0,0,0-1.3.7l-.4,2.5a1.08,1.08,0,0,0,1.1.7,1.61,1.61,0,0,0,1.1-.5A2.62,2.62,0,0,0,203.5,27.8Z"/><path class="cls-1" d="M208,25.2a1.5,1.5,0,0,1,1.1.4,3.59,3.59,0,0,1,.7,1A3.18,3.18,0,0,1,210,28v.1a3.36,3.36,0,0,1-.5,1.4,9,9,0,0,1-.9,1,1.81,1.81,0,0,1-1.3.3,1.5,1.5,0,0,1-1.1-.4,2.55,2.55,0,0,1-.7-1,2.74,2.74,0,0,1-.2-1.3,4.19,4.19,0,0,1,.4-1.5,2,2,0,0,1,1-1A1.57,1.57,0,0,1,208,25.2ZM206.2,28v.6a1.22,1.22,0,0,0,.3.9,2,2,0,0,0,.8.4,1.88,1.88,0,0,0,.8-.2,1.41,1.41,0,0,0,.6-.7,3.81,3.81,0,0,0,.3-1v-.8a1.27,1.27,0,0,0-.4-.9,2,2,0,0,0-.8-.4,1.85,1.85,0,0,0-1.2.5,2,2,0,0,0-.6,1.4Z"/><path class="cls-1" d="M215.4,29.3l1.7-4h.9l-2.4,5.3h-.7l-.5-4-1.9,4h-.7l-.6-5.3h.8l.3,3.9,1.9-3.9h.7Z"/><path class="cls-1" d="M220.3,30.6a1.81,1.81,0,0,1-1.5-.7,3.2,3.2,0,0,1-.5-1.8v-.2a3.36,3.36,0,0,1,.5-1.4,4.5,4.5,0,0,1,.9-1,2.38,2.38,0,0,1,1.2-.3,1.9,1.9,0,0,1,1.3.5,2,2,0,0,1,.5,1.4v.6l-.1.4h-3.5a1.55,1.55,0,0,0,.2,1.2,1.1,1.1,0,0,0,1,.5,1.75,1.75,0,0,0,1.4-.7l.5.4a1.6,1.6,0,0,1-.9.7A1.16,1.16,0,0,1,220.3,30.6Zm.5-4.7a1.28,1.28,0,0,0-1,.4,2,2,0,0,0-.6,1.1h2.6v-.1a1.09,1.09,0,0,0-.2-1A.81.81,0,0,0,220.8,25.9Z"/><path class="cls-1" d="M226.5,26.1h-.4a1.44,1.44,0,0,0-1.3.8l-.6,3.8h-.9l.9-5.3h.9l-.1.6a1.57,1.57,0,0,1,1.3-.7.76.76,0,0,1,.4.1Z"/><path class="cls-1" d="M228.7,30.6a1.81,1.81,0,0,1-1.5-.7,3.2,3.2,0,0,1-.5-1.8v-.2a3.36,3.36,0,0,1,.5-1.4,4.5,4.5,0,0,1,.9-1,2.38,2.38,0,0,1,1.2-.3,1.9,1.9,0,0,1,1.3.5,2,2,0,0,1,.5,1.4v.6l-.1.4h-3.5a1.55,1.55,0,0,0,.2,1.2,1.1,1.1,0,0,0,1,.5,1.75,1.75,0,0,0,1.4-.7l.5.4a1.6,1.6,0,0,1-.9.7A1.16,1.16,0,0,1,228.7,30.6Zm.6-4.7a1.28,1.28,0,0,0-1,.4,2,2,0,0,0-.6,1.1h2.6v-.1a1.09,1.09,0,0,0-.2-1A.91.91,0,0,0,229.3,25.9Z"/><path class="cls-1" d="M231.9,27.9a8.33,8.33,0,0,1,.4-1.5,1.79,1.79,0,0,1,.9-1,2.28,2.28,0,0,1,1.1-.3,1.82,1.82,0,0,1,1.4.6l.5-2.8h.9l-1.3,7.5H235l.1-.6a1.8,1.8,0,0,1-1.5.7,1.43,1.43,0,0,1-1.2-.6,3.33,3.33,0,0,1-.5-1.5C231.8,28.4,231.8,28.1,231.9,27.9Zm.8.5a3.09,3.09,0,0,0,.2,1.1c.1.3.4.4.8.4a1.61,1.61,0,0,0,1.4-.8l.4-2.4a1,1,0,0,0-1.1-.7,1.4,1.4,0,0,0-.9.3,1.46,1.46,0,0,0-.6.9A4.3,4.3,0,0,0,232.7,28.4Z"/><path class="cls-1" d="M244.4,27.9a8.33,8.33,0,0,1-.4,1.5,2.09,2.09,0,0,1-.8,1,2,2,0,0,1-1.1.3,1.75,1.75,0,0,1-1.4-.7l-.2.6h-.8l1.3-7.5h.9l-.5,2.8a1.8,1.8,0,0,1,1.5-.7,1.43,1.43,0,0,1,1.2.6,2.41,2.41,0,0,1,.4,1.5v.6Zm-.9-.5a3.09,3.09,0,0,0-.2-1.1c-.1-.3-.4-.4-.8-.4a1.87,1.87,0,0,0-1.4.8l-.4,2.3a1.17,1.17,0,0,0,1.1.8,1.61,1.61,0,0,0,.9-.3,1.46,1.46,0,0,0,.6-.9A5,5,0,0,0,243.5,27.4Z"/><path class="cls-1" d="M246.9,29.2l1.9-4h1l-3.1,6.2a1.85,1.85,0,0,1-1.7,1.3,1.09,1.09,0,0,1-.5-.1l.1-.7h.2a.84.84,0,0,0,.7-.2,1.28,1.28,0,0,0,.5-.7l.3-.6-.9-5.2h.9Z"/><path class="cls-1" d="M39.6,60A19.8,19.8,0,1,0,19.8,40.2,19.79,19.79,0,0,0,39.6,60Z"/><path class="cls-1" d="M39.6,54.4A14.2,14.2,0,1,0,25.4,40.2,14.2,14.2,0,0,0,39.6,54.4Z"/><path class="cls-1" d="M43.4,40a2.8,2.8,0,0,0,2.1-2.8c.1-2.1-2.1-2.7-2.7-2.7L43,32l-1.9-.1-.2,2.5-1.5-.1.2-2.5-1.7-.1-.2,2.5-3.5-.3-.1,1.7,1.7.1L35.3,44l-1.7-.1-.1,1.7,3.5.2-.2,2.5,1.6.1.2-2.5,1.7.1-.2,2.5,1.6.1.2-2.5s3.8.1,4-3.1A3.19,3.19,0,0,0,43.4,40Zm-4.2-4,1.9.1a1.35,1.35,0,0,1,.9,1.5c-.1,1.3-1.1,1.3-1.1,1.3L39,38.8Zm1.7,8.3-2.3-.1.2-3.3L41,41a1.52,1.52,0,0,1,1.1,1.7C42.1,44.3,40.9,44.3,40.9,44.3Z"/><path class="cls-2" d="M10.7,0A10.73,10.73,0,0,0,0,10.8V63.3A10.8,10.8,0,0,0,10.7,74.1H148.9L172.1.1H10.7Z"/><path class="cls-3" d="M277.7,0H172.1L148.9,74H277.8a10.73,10.73,0,0,0,10.7-10.8V10.7A10.86,10.86,0,0,0,277.7,0Z"/><path d="M75.6,31.4a4.71,4.71,0,0,1-2.4.6A5.62,5.62,0,0,1,69,30.4a5.56,5.56,0,0,1,0-8,5.6,5.6,0,0,1,4-1.5,5.93,5.93,0,0,1,2.6.6v2.8a3.41,3.41,0,0,0-4.7-.3,3.38,3.38,0,0,0-1,2.5,3.09,3.09,0,0,0,3.2,3.3,3.38,3.38,0,0,0,2.4-1.1v2.7Z"/><path d="M81.3,21a3.59,3.59,0,0,1,2.7.9,3.37,3.37,0,0,1,.9,2.4,2.89,2.89,0,0,1-.8,2.2,2.75,2.75,0,0,1-1.5.8l3.3,4.4h-3L80,27.5v4.2H77.5V21ZM80,25.9h.6a1.84,1.84,0,0,0,1.5-.5,1.33,1.33,0,0,0,.4-1,1.43,1.43,0,0,0-.5-1.1,2.38,2.38,0,0,0-1.4-.3H80Z"/><path d="M89.6,26.7,85.8,21h2.9l2.1,3.3L92.9,21h2.9L92,26.7v5H89.5v-5Z"/><path d="M100.8,21a3.78,3.78,0,0,1,2.8.9,3.33,3.33,0,0,1,1,2.6,3.45,3.45,0,0,1-.9,2.5,3.41,3.41,0,0,1-2.7.9H99.5v3.7H97V21Zm-1.3,4.9h.9a1.79,1.79,0,0,0,1.3-.4,1.6,1.6,0,0,0,.4-1.1,1.53,1.53,0,0,0-.4-1,1.79,1.79,0,0,0-1.4-.4h-.8Z"/><path d="M110.4,23.1v8.6h-2.5V23.1h-2.3V21h7.1v2.1Z"/><path d="M123.2,22.3a5.66,5.66,0,0,1,1.7,4,5.38,5.38,0,0,1-1.7,4,5.49,5.49,0,0,1-4.1,1.6,5.85,5.85,0,0,1-4.2-1.6,5.66,5.66,0,0,1-1.7-4,6,6,0,0,1,1.6-4,5.7,5.7,0,0,1,4.2-1.6A6.57,6.57,0,0,1,123.2,22.3ZM116.7,24a3,3,0,0,0-.9,2.4,3,3,0,0,0,1,2.4,3.08,3.08,0,0,0,2.3.9,3.32,3.32,0,0,0,2.4-.9,3.37,3.37,0,0,0,.9-2.4,3.32,3.32,0,0,0-.9-2.4,3.5,3.5,0,0,0-2.4-.9A3.24,3.24,0,0,0,116.7,24Z"/><path d="M74.2,48.9h-4l-.8,2H66.8l4.3-10.7h2.3l4.2,10.7H75ZM73.5,47l-1.3-3.6L70.9,47Z"/><path d="M86.1,50.6a4.71,4.71,0,0,1-2.4.6,5.62,5.62,0,0,1-4.2-1.6,5.56,5.56,0,0,1,0-8,5.6,5.6,0,0,1,4-1.5,5.93,5.93,0,0,1,2.6.6v2.8a3.41,3.41,0,0,0-4.7-.3,3.38,3.38,0,0,0-1,2.5A3.09,3.09,0,0,0,83.6,49,3.38,3.38,0,0,0,86,47.9v2.7Z"/><path d="M95.6,50.6a4.71,4.71,0,0,1-2.4.6A5.62,5.62,0,0,1,89,49.6a5.56,5.56,0,0,1,0-8,5.6,5.6,0,0,1,4-1.5,5.93,5.93,0,0,1,2.6.6v2.8a3.41,3.41,0,0,0-4.7-.3,3.38,3.38,0,0,0-1,2.5A3.09,3.09,0,0,0,93.1,49a3.38,3.38,0,0,0,2.4-1.1v2.7Z"/><path d="M103.6,42.3H100v2.1h3.4v2.1H100v2.4h3.6V51h-6V40.2h6Z"/><path d="M109.4,40.2a3.78,3.78,0,0,1,2.8.9,3.33,3.33,0,0,1,1,2.6,3.45,3.45,0,0,1-.9,2.5,3.41,3.41,0,0,1-2.7.9h-1.5v3.7h-2.5V40.2Zm-1.3,4.9h.9a1.79,1.79,0,0,0,1.3-.4,1.6,1.6,0,0,0,.4-1.1,1.53,1.53,0,0,0-.4-1,1.79,1.79,0,0,0-1.4-.4h-.8Z"/><path d="M119,42.3v8.6h-2.5V42.3h-2.3V40.2h7.1v2.1Z"/><path d="M128.7,42.3h-3.6v2.1h3.4v2.1h-3.4v2.4h3.6V51h-6V40.2h6Z"/><path d="M134,40.2a5.49,5.49,0,0,1,4.2,1.5,5.27,5.27,0,0,1,1.5,3.8,5.11,5.11,0,0,1-1.5,3.8,5.72,5.72,0,0,1-4.2,1.6h-3.5V40.2Zm-.9,8.6h.7a3.58,3.58,0,0,0,2.4-.7,3.3,3.3,0,0,0,1-2.6,3.09,3.09,0,0,0-.9-2.3,3.46,3.46,0,0,0-2.6-.9H133v6.5Z"/><path class="cls-4" d="M199.1,38.6l-1.4,2a4,4,0,0,0-1.5-.3,2.77,2.77,0,0,0-.9.1h-.1a2.73,2.73,0,0,0-1.2.6l-.1.1a3.82,3.82,0,0,0-.9.9c-.9,1.2-1.6,2.8-2.8,4.6a1,1,0,0,1-.4.5,9.78,9.78,0,0,1-3.6,3.1.35.35,0,0,0-.2.1,1.42,1.42,0,0,1-.6.2c-.1,0-.3.1-.4.1a5,5,0,0,1-1.2.2h-.3a6.4,6.4,0,0,1,0-12.8,6.27,6.27,0,0,1,4.5,1.8l-1.4,2.1a4,4,0,0,0-6.1,5.1,4.05,4.05,0,0,0,3,1.4h.3a3.71,3.71,0,0,0,1.5-.4c1.4-.6,2.5-2.1,4.4-5.3a.76.76,0,0,0,.2-.4,9.89,9.89,0,0,1,2.5-2.9l.1-.1c.1,0,.1-.1.2-.1a.52.52,0,0,1,.4-.2c.2-.1.3-.2.5-.2l.1-.1c.1,0,.1-.1.2-.1s.2-.1.3-.1A6,6,0,0,1,199.1,38.6Z"/><path class="cls-4" d="M202.6,43.2v1.9a1.27,1.27,0,0,1-.1.6,6.38,6.38,0,0,1-7.5,5.1,5.79,5.79,0,0,1-3.1-1.6l1.4-2a4.06,4.06,0,0,0,5.6.3,4.52,4.52,0,0,0,1.1-1.7h-4l1.7-2.4Z"/><path class="cls-4" d="M217,43.06a2.17,2.17,0,0,0-1.4-.5,1.57,1.57,0,0,0-1.7,1.7,1.79,1.79,0,0,0,1.8,1.8,2.18,2.18,0,0,0,1.4-.5v1.7a3.1,3.1,0,0,1-1.6.4,3.7,3.7,0,0,1-2.4-.9,3,3,0,0,1-1-2.4,3,3,0,0,1,1.1-2.5,3.16,3.16,0,0,1,2.2-.8,3.29,3.29,0,0,1,1.7.4v1.6Z"/><path class="cls-4" d="M224.35,41.86a3.31,3.31,0,0,1,1,2.4,3.15,3.15,0,0,1-1,2.4,3.92,3.92,0,0,1-5,0,3.31,3.31,0,0,1-1-2.4,3.15,3.15,0,0,1,1-2.4,3.92,3.92,0,0,1,5,0Zm-.8,2.4a1.7,1.7,0,1,0-3.4,0,1.69,1.69,0,0,0,1.7,1.7A1.63,1.63,0,0,0,223.55,44.26Z"/><path class="cls-4" d="M228,37.56a1,1,0,1,1-1,1A1,1,0,0,1,228,37.56Zm.9,3.6v6.2h-1.7v-6.2Z"/><path class="cls-4" d="M230.85,41.16h1.7V42a2.11,2.11,0,0,1,1.9-1,2.44,2.44,0,0,1,1.8.8,2.62,2.62,0,0,1,.5,1.7v3.9h-1.7V44a1.8,1.8,0,0,0-.3-1.2,1,1,0,0,0-.8-.3,1.43,1.43,0,0,0-1.1.5,1.8,1.8,0,0,0-.3,1.2v3.2h-1.7Z"/><path class="cls-4" d="M243.45,41.16h1.7v5.9a3.56,3.56,0,0,1-.9,2.7,3.37,3.37,0,0,1-2.4.9,3.65,3.65,0,0,1-2.3-.7,2.94,2.94,0,0,1-1-1.8h1.9c.1.3.2.6.4.7a1.55,1.55,0,0,0,1.1.3,1.82,1.82,0,0,0,1.1-.4,1.79,1.79,0,0,0,.4-1.4v-.9a2.13,2.13,0,0,1-1.9,1,3.23,3.23,0,0,1-2.1-.8,3.42,3.42,0,0,1-1-2.5,3.55,3.55,0,0,1,1-2.5,3,3,0,0,1,2.1-.8,1.93,1.93,0,0,1,1.9,1Zm-2.6,1.8a1.78,1.78,0,0,0-.6,1.3,1.71,1.71,0,0,0,1.8,1.7,2.45,2.45,0,0,0,1.2-.4,1.61,1.61,0,0,0,.6-1.3,1.68,1.68,0,0,0-.5-1.2,1.35,1.35,0,0,0-1.2-.5A1.8,1.8,0,0,0,240.85,43Z"/><path class="cls-4" d="M252,41.16h1.7v6.2H252v-.8a2.23,2.23,0,0,1-1.9,1,3.18,3.18,0,0,1-3.2-3.3A3.1,3.1,0,0,1,250,41a2.28,2.28,0,0,1,2,1Zm-3.2,3.1a1.7,1.7,0,1,0,3.4,0,1.7,1.7,0,0,0-3.4,0Z"/><path class="cls-4" d="M257.45,42.66v4.7h-1.7v-4.7h-.7v-1.5h.7v-2.1h1.7v2.1h1.2v1.5Z"/><path class="cls-4" d="M266,45.66a3,3,0,0,1-3,1.9,3.24,3.24,0,0,1-2.4-.9,3,3,0,0,1-1-2.4,3.37,3.37,0,0,1,.9-2.4,3.22,3.22,0,0,1,2.3-.9,2.86,2.86,0,0,1,2.4,1,3.45,3.45,0,0,1,.7,2.4v.1h-4.6a1.49,1.49,0,0,0,.3,1,1.41,1.41,0,0,0,1.2.6,1.39,1.39,0,0,0,1.4-.8Zm-1.6-2.2a1.42,1.42,0,0,0-1.5-1.2,1.56,1.56,0,0,0-1.5,1.2Z"/><path class="cls-4" d="M201.4,24.9a8.33,8.33,0,0,1-.4,1.5,2.09,2.09,0,0,1-.8,1,2,2,0,0,1-1.1.3,1.68,1.68,0,0,1-1.4-.6l-.5,2.5h-.9l1.3-7.3h.8l-.1.6a2,2,0,0,1,1.6-.7,1.43,1.43,0,0,1,1.2.6,2.41,2.41,0,0,1,.4,1.5v.6Zm-.9-.1v-.4a1.8,1.8,0,0,0-.3-1.1.81.81,0,0,0-.8-.4,1.46,1.46,0,0,0-1.3.7l-.4,2.5a1.08,1.08,0,0,0,1.1.7,1.61,1.61,0,0,0,1.1-.5A2.62,2.62,0,0,0,200.5,24.8Z"/><path class="cls-4" d="M205,22.2a1.5,1.5,0,0,1,1.1.4,3.59,3.59,0,0,1,.7,1A3.18,3.18,0,0,1,207,25v.1a3.36,3.36,0,0,1-.5,1.4,9,9,0,0,1-.9,1,1.81,1.81,0,0,1-1.3.3,1.5,1.5,0,0,1-1.1-.4,2.55,2.55,0,0,1-.7-1,2.74,2.74,0,0,1-.2-1.3,4.19,4.19,0,0,1,.4-1.5,2,2,0,0,1,1-1A1.57,1.57,0,0,1,205,22.2ZM203.2,25v.6a1.22,1.22,0,0,0,.3.9,2,2,0,0,0,.8.4,1.88,1.88,0,0,0,.8-.2,1.41,1.41,0,0,0,.6-.7,3.81,3.81,0,0,0,.3-1v-.8a1.27,1.27,0,0,0-.4-.9,2,2,0,0,0-.8-.4,1.85,1.85,0,0,0-1.2.5,2,2,0,0,0-.6,1.4Z"/><path class="cls-4" d="M212.4,26.3l1.7-4h.9l-2.4,5.3h-.7l-.5-4-1.9,4h-.7l-.6-5.3h.8l.3,3.9,1.9-3.9h.7Z"/><path class="cls-4" d="M217.3,27.6a1.81,1.81,0,0,1-1.5-.7,3.2,3.2,0,0,1-.5-1.8v-.2a3.36,3.36,0,0,1,.5-1.4,4.5,4.5,0,0,1,.9-1,2.38,2.38,0,0,1,1.2-.3,1.9,1.9,0,0,1,1.3.5,2,2,0,0,1,.5,1.4v.6l-.1.4h-3.5a1.55,1.55,0,0,0,.2,1.2,1.1,1.1,0,0,0,1,.5,1.75,1.75,0,0,0,1.4-.7l.5.4a1.6,1.6,0,0,1-.9.7A1.16,1.16,0,0,1,217.3,27.6Zm.5-4.7a1.28,1.28,0,0,0-1,.4,2,2,0,0,0-.6,1.1h2.6v-.1a1.09,1.09,0,0,0-.2-1A.81.81,0,0,0,217.8,22.9Z"/><path class="cls-4" d="M223.5,23.1h-.4a1.44,1.44,0,0,0-1.3.8l-.6,3.8h-.9l.9-5.3h.9l-.1.6a1.57,1.57,0,0,1,1.3-.7.76.76,0,0,1,.4.1Z"/><path class="cls-4" d="M225.7,27.6a1.81,1.81,0,0,1-1.5-.7,3.2,3.2,0,0,1-.5-1.8v-.2a3.36,3.36,0,0,1,.5-1.4,4.5,4.5,0,0,1,.9-1,2.38,2.38,0,0,1,1.2-.3,1.9,1.9,0,0,1,1.3.5,2,2,0,0,1,.5,1.4v.6l-.1.4h-3.5a1.55,1.55,0,0,0,.2,1.2,1.1,1.1,0,0,0,1,.5,1.75,1.75,0,0,0,1.4-.7l.5.4a1.6,1.6,0,0,1-.9.7A1.16,1.16,0,0,1,225.7,27.6Zm.6-4.7a1.28,1.28,0,0,0-1,.4,2,2,0,0,0-.6,1.1h2.6v-.1a1.09,1.09,0,0,0-.2-1A.91.91,0,0,0,226.3,22.9Z"/><path class="cls-4" d="M228.9,24.9a8.33,8.33,0,0,1,.4-1.5,1.79,1.79,0,0,1,.9-1,2.28,2.28,0,0,1,1.1-.3,1.82,1.82,0,0,1,1.4.6l.5-2.8h.9l-1.3,7.5H232l.1-.6a1.8,1.8,0,0,1-1.5.7,1.43,1.43,0,0,1-1.2-.6,3.33,3.33,0,0,1-.5-1.5C228.8,25.4,228.8,25.1,228.9,24.9Zm.8.5a3.09,3.09,0,0,0,.2,1.1c.1.3.4.4.8.4a1.61,1.61,0,0,0,1.4-.8l.4-2.4a1,1,0,0,0-1.1-.7,1.4,1.4,0,0,0-.9.3,1.46,1.46,0,0,0-.6.9A4.3,4.3,0,0,0,229.7,25.4Z"/><path class="cls-4" d="M241.4,24.9a8.33,8.33,0,0,1-.4,1.5,2.09,2.09,0,0,1-.8,1,2,2,0,0,1-1.1.3,1.75,1.75,0,0,1-1.4-.7l-.2.6h-.8l1.3-7.5h.9l-.5,2.8a1.8,1.8,0,0,1,1.5-.7,1.43,1.43,0,0,1,1.2.6,2.41,2.41,0,0,1,.4,1.5v.6Zm-.9-.5a3.09,3.09,0,0,0-.2-1.1c-.1-.3-.4-.4-.8-.4a1.87,1.87,0,0,0-1.4.8l-.4,2.3a1.17,1.17,0,0,0,1.1.8,1.61,1.61,0,0,0,.9-.3,1.46,1.46,0,0,0,.6-.9A5,5,0,0,0,240.5,24.4Z"/><path class="cls-4" d="M243.9,26.2l1.9-4h1l-3.1,6.2a1.85,1.85,0,0,1-1.7,1.3,1.09,1.09,0,0,1-.5-.1l.1-.7h.2a.84.84,0,0,0,.7-.2,1.28,1.28,0,0,0,.5-.7l.3-.6-.9-5.2h.9Z"/><path class="cls-5" d="M36.59,57a19.8,19.8,0,1,0-19.8-19.8A19.79,19.79,0,0,0,36.59,57Z"/><path class="cls-6" d="M36.6,51.4A14.2,14.2,0,1,0,22.4,37.2,14.2,14.2,0,0,0,36.6,51.4Z"/><path class="cls-2" d="M40.4,37a2.8,2.8,0,0,0,2.1-2.8c.1-2.1-2.1-2.7-2.7-2.7L40,29l-1.9-.1-.2,2.5-1.5-.1.2-2.5-1.7-.1-.2,2.5-3.5-.3-.1,1.7,1.7.1L32.3,41l-1.7-.1-.1,1.7,3.5.2-.2,2.5,1.6.1.2-2.5,1.7.1-.2,2.5,1.6.1.2-2.5s3.8.1,4-3.1A3.19,3.19,0,0,0,40.4,37Zm-4.2-4,1.9.1a1.35,1.35,0,0,1,.9,1.5c-.1,1.3-1.1,1.3-1.1,1.3L36,35.8Zm1.7,8.3-2.3-.1.2-3.3L38,38a1.52,1.52,0,0,1,1.1,1.7C39.1,41.3,37.9,41.3,37.9,41.3Z"/></svg>