<?xml version="1.0" encoding="utf-8"?>
<!-- Generator: Adobe Illustrator 26.3.1, SVG Export Plug-In . SVG Version: 6.00 Build 0)  -->
<svg version="1.1" id="Layer_1" xmlns="http://www.w3.org/2000/svg" xmlns:xlink="http://www.w3.org/1999/xlink" x="0px" y="0px"
	 viewBox="0 0 24 24" style="enable-background:new 0 0 24 24;" xml:space="preserve">
<style type="text/css">
	.st0{fill:none;}
	.st1{fill:#EF3E5C;}
	.st2{fill:#E42A53;}
	.st3{fill:#924B35;}
	.st4{fill:#723529;}
	.st5{fill:#7F3F2E;}
	.st6{fill:#FFC592;}
	.st7{fill:#EFA873;}
	.st8{fill:#E5A070;}
	.st9{fill:#D89364;}
</style>
<rect id="canvas_background" x="-1" y="-1" class="st0" width="582" height="402"/>
<g id="_x36_02_x2C__Gift_x2C__box_x2C__delivery_x2C__surprize">
	<g>
		<path class="st1" d="M13.4,0.8c0.8,0,1.4,0.7,1.4,1.5c0,1.5-1.4,2.3-2.9,3.8c-1.4-1.5-2.9-2.3-2.9-3.8c0-0.8,0.6-1.5,1.4-1.5
			c0.7,0,1.1,0.4,1.4,1.1C12.3,1.2,12.7,0.8,13.4,0.8z"/>
		<g>
			<g>
				<g>
					<path class="st2" d="M10,2.6c0-0.8,0.6-1.5,1.4-1.5c0,0,0.1,0,0.1,0c-0.2-0.3-0.5-0.4-1-0.4c-0.8,0-1.4,0.7-1.4,1.5
						c0,1.5,1.4,2.3,2.9,3.8c0.1-0.1,0.2-0.2,0.2-0.2C11,4.7,10,3.9,10,2.6z"/>
				</g>
			</g>
		</g>
		<polygon class="st3" points="12,14 14.8,18.9 20.5,17.4 20.5,21 12,22.6 		"/>
		<g>
			<polygon class="st4" points="12.7,15.1 12,14 12,22.6 12.7,22.5 			"/>
		</g>
		<polygon class="st3" points="12,14 12,22.6 3.4,21 3.4,17.4 9.1,18.9 		"/>
		<polygon class="st5" points="3.7,18.1 9.4,19.6 12,15.2 12,14 9.1,18.9 3.4,17.4 3.4,21 3.7,21.1 		"/>
		<polygon class="st6" points="9.1,6 12,10.5 3.5,12.3 1.4,7.5 		"/>
		<polygon class="st7" points="2.2,8 9.5,6.6 9.1,6 1.4,7.5 3.5,12.3 4.1,12.2 		"/>
		<polygon class="st6" points="22.6,7.5 20.6,12.3 12,10.5 14.8,6 		"/>
		<polygon class="st7" points="15.1,6.6 22.4,8 22.6,7.5 14.8,6 12,10.5 12.6,10.7 		"/>
		<polygon class="st6" points="14.8,18.9 12,14 20.6,12.3 22.6,16.9 20.5,17.4 		"/>
		<polygon class="st7" points="12.9,14.5 20.8,12.8 20.6,12.3 12,14 14.8,18.9 15.3,18.8 		"/>
		<polygon class="st6" points="12,14 9.1,18.9 3.4,17.4 1.4,16.9 3.5,12.3 		"/>
		<polygon class="st7" points="3.8,12.9 11.7,14.5 12,14 3.5,12.3 1.4,16.9 1.9,17 		"/>
		<polygon class="st8" points="20.6,12.3 12,14 3.5,12.3 12,10.5 		"/>
		<polygon class="st9" points="12.2,11.1 19.3,12.6 20.6,12.3 12,10.5 3.5,12.3 5,12.6 		"/>
		<path class="st7" d="M14.1,17c-0.1,0-0.2-0.1-0.3-0.2c0-0.2,0.1-0.3,0.2-0.3l6.2-1.6c0.2,0,0.3,0.1,0.3,0.2c0,0.2-0.1,0.3-0.2,0.3
			L14.1,17C14.1,17,14.1,17,14.1,17z"/>
	</g>
</g>
<g id="Layer_1_00000052795389847483490830000018397172768556348565_">
</g>
</svg>
