<?xml version="1.0" encoding="utf-8"?>
<!-- Generator: Adobe Illustrator 26.3.1, SVG Export Plug-In . SVG Version: 6.00 Build 0)  -->
<svg version="1.1" id="Layer_1" xmlns="http://www.w3.org/2000/svg" xmlns:xlink="http://www.w3.org/1999/xlink" x="0px" y="0px"
	 viewBox="0 0 1024 491" style="enable-background:new 0 0 1024 491;" xml:space="preserve">
<style type="text/css">
	.st0{fill:#C61D61;}
	.st1{fill:#FFFFFF;}
</style>
<path id="Shape_1_copy_2" class="st0" d="M618,189.9c-14.3,38.7-78.3,65.9-78.3,65.9c-17.6-4.5-34.6-11-50.7-19.4
	c-8.4,4.8-17,9.2-25.8,13.1c0,0-81.9-19.4-106.7-62.7c-18.6-32.6-10-72.6,19.5-89.4c24.2-13.9,55-7.6,75.5,13.3
	c16.7-24,46-35.4,72.3-25.7c13.7,5.1,24.9,15.2,31.4,28.3c-10.4,4.2-19.3,11.4-25.7,20.6c-17-17.3-42.4-22.5-62.5-11
	c-18,10.3-26.6,31.2-23.6,52.3c-0.4-18.6,8.2-36.1,24.2-45.2c20.1-11.5,45.5-6.3,62.5,11c13.8-19.9,38.1-29.3,59.8-21.3
	C616.1,129.2,628.7,160.7,618,189.9z"/>
<path class="st1" d="M93.5,444.1c-7,0.1-13.9-2-19.7-6c-6-4.3-10.6-10.1-13.5-16.8c-3.2-7.1-4.8-15.4-4.8-24.8V239.7
	c-0.3-5.5,3.9-10.1,9.4-10.5c0.4,0,0.7,0,1.1,0c5.5-0.3,10.2,3.9,10.5,9.3c0,0.4,0,0.7,0,1.1v156.8c0,7.9,1.6,14.3,4.8,19.3
	s7.3,7.4,12.2,7.4h6.9c2.5-0.1,5,1,6.6,2.9c1.7,2.1,2.6,4.8,2.5,7.6c0.1,2.9-1.2,5.7-3.5,7.6c-2.6,2-5.7,3-9,2.9L93.5,444.1z"/>
<path class="st1" d="M198.9,445.5c-14.7,0-27.8-3.3-39.3-9.9c-11.4-6.4-20.8-15.8-27.2-27.2c-6.6-11.5-9.9-24.7-9.9-39.3
	c0-14.9,3.3-28.1,9.9-39.6c6.4-11.4,15.8-20.8,27.2-27.2c11.6-6.6,24.7-9.9,39.3-9.9c14.7,0,27.7,3.3,39.2,9.9
	c11.3,6.5,20.7,15.9,27.1,27.2c6.6,11.6,10,24.8,10.2,39.6c0,14.7-3.3,27.8-10,39.3c-6.5,11.3-15.9,20.8-27.2,27.2
	C226.6,442.2,213.6,445.5,198.9,445.5z M198.9,426.2c10,0.2,19.9-2.4,28.6-7.4c8.3-4.9,15.2-11.9,19.8-20.4
	c4.8-8.6,7.2-18.4,7.1-29.4c0.2-10.3-2.3-20.5-7.1-29.6c-4.6-8.5-11.4-15.6-19.8-20.5c-17.8-9.9-39.4-9.9-57.2,0
	c-8.4,4.9-15.3,12-20,20.5c-4.9,9.1-7.4,19.3-7.3,29.6c0,11,2.4,20.8,7.3,29.4c4.7,8.5,11.6,15.5,20,20.4
	C179,423.8,188.9,426.4,198.9,426.2z"/>
<path class="st1" d="M359.8,444.1c-4.4,0-7.7-2.4-9.9-7.1l-61.1-129.6c-1.1-2.2-1.2-4.8-0.3-7.2c1-2.5,3-4.5,5.5-5.5
	c2.3-1.3,5-1.5,7.4-0.5c2.4,0.9,4.3,2.7,5.5,5l58.6,126.8h-11.3l57.8-126.8c1-2.5,3.1-4.3,5.6-5.1c2.6-0.8,5.4-0.7,7.8,0.4
	c2.4,1.1,4.3,3.1,5.2,5.6c0.9,2.3,0.8,4.8-0.3,7l-60.3,129.9C368.1,441.7,364.6,444.1,359.8,444.1z"/>
<path class="st1" d="M523.3,445.5c-14.8,0-28-3.3-39.5-9.8c-11.3-6.4-20.7-15.7-27-27.1c-6.5-11.6-9.8-24.8-9.8-39.6
	c0-15,3.1-28.3,9.2-39.8c5.9-11.2,14.7-20.5,25.5-27.1c10.8-6.6,23.3-9.9,37.4-9.9c13.9,0,26.1,3.2,36.5,9.5
	c10.4,6.3,18.7,15.4,24.1,26.3c5.7,11.2,8.5,23.9,8.5,38.2c0.1,2.6-0.9,5.2-2.8,7c-1.9,1.8-4.5,2.7-7.2,2.6H461.4v-17.6h119.1
	l-11.8,8.5c0.2-10.7-1.7-20.2-5.8-28.6c-3.7-8.1-9.7-15-17.2-19.8c-7.4-4.8-16.3-7.1-26.5-7.1c-10.5,0-19.6,2.5-27.5,7.4
	c-7.9,5-14.3,12.1-18.3,20.5c-4.3,8.7-6.5,18.7-6.5,29.9c0,11.2,2.4,21.1,7.3,29.7c4.7,8.5,11.6,15.5,20,20.4
	c8.4,5,18.1,7.4,29.2,7.4c6.8,0,13.6-1.2,20-3.4c6.7-2.3,12-5.2,16.1-8.7c1.9-1.6,4.4-2.5,6.9-2.6c2.4-0.1,4.7,0.6,6.6,2.1
	c2.4,2.2,3.6,4.6,3.7,7.1c0.1,2.6-1.1,5-3.2,6.6c-6.1,5.1-13.8,9.4-23.1,12.8C541.6,443.6,532.5,445.4,523.3,445.5z"/>
<path class="st1" d="M634.4,444.1c-3.3,0-5.9-0.9-7.7-2.8s-2.8-4.4-2.8-7.7V304c0-3.3,0.9-5.9,2.8-7.7s4.4-2.8,7.7-2.8
	s5.9,0.9,7.7,2.8s2.8,4.4,2.8,7.7v129.6c0,3.3-0.9,5.9-2.8,7.7C640.3,443.2,637.7,444.1,634.4,444.1z M632.8,351.4
	c0.4-10.8,3.4-21.3,8.9-30.5c5.2-8.7,12.4-16,21.2-21.2c8.8-5.2,18.8-7.8,29-7.7c8.4,0,15,1.2,19.5,3.6s6.3,5.9,5.3,10.5
	c-0.7,2.8-2,4.6-3.7,5.5c-2,1-4.2,1.3-6.3,1.1c-2.5-0.2-5.3-0.4-8.4-0.6c-10.3-0.9-19.4,0.1-27.4,3.2c-7.5,2.7-14.1,7.5-19,13.9
	c-4.7,6.2-7,13.7-7,22.3L632.8,351.4z"/>
<path class="st1" d="M764.8,265c-3.9,0-7.7-1.6-10.5-4.4c-2.9-2.8-4.5-6.7-4.4-10.7c0-4.6,1.5-8.2,4.5-10.9c2.9-2.6,6.7-4,10.6-4
	c3.8,0,7.5,1.4,10.3,4c3,2.7,4.5,6.3,4.5,10.9c0,8.3-6.7,15.1-15,15.1C764.9,265,764.9,265,764.8,265z M765.1,444.1
	c-5.5,0.4-10.3-3.7-10.7-9.2c0-0.5,0-1,0-1.5v-129c-0.4-5.5,3.7-10.3,9.2-10.7c0.5,0,1,0,1.5,0c2.8-0.1,5.5,0.9,7.6,2.9
	c2,2.1,3,4.9,2.9,7.8v129c0.2,2.9-0.9,5.7-2.9,7.8C770.7,443.2,767.9,444.2,765.1,444.1L765.1,444.1z"/>
<path class="st1" d="M895.8,445.5c-14.1,0-26.8-3.4-38-10c-11.1-6.6-20.3-16.1-26.5-27.4c-6.5-11.6-9.8-24.6-9.8-39.1
	c0-14.7,3.3-27.8,10-39.4c6.5-11.4,16-20.8,27.4-27.4c11.5-6.7,24.6-10,39.1-10s27.5,3.3,38.9,10c11.3,6.6,20.7,16,27.2,27.4
	c6.7,11.6,10.2,24.7,10.4,39.4l-8.5,6.6c0.2,12.5-3,24.8-9.2,35.6c-6,10.4-14.6,19-25,25C921.2,442.4,909.2,445.5,895.8,445.5z
	 M898,426.2c10,0.2,19.8-2.4,28.5-7.4c8.3-4.9,15.2-12,19.8-20.5c4.9-9,7.4-19.1,7.3-29.3c0-11-2.4-20.8-7.3-29.4
	c-4.7-8.5-11.5-15.5-19.8-20.5c-17.6-10.1-39.2-10.1-56.8,0c-8.4,5-15.3,12-20.1,20.5c-9.9,18.3-9.9,40.4,0,58.7
	C859.3,415.8,877.9,426.5,898,426.2L898,426.2z M963.8,444.1c-2.9,0.1-5.6-0.9-7.7-2.9c-2-2-3.1-4.7-3-7.6v-47l5.2-21.7l16.2,4.1
	v64.7c0.1,2.8-1,5.6-3,7.6C969.4,443.2,966.6,444.2,963.8,444.1z"/>
</svg>
