<?xml version="1.0" encoding="utf-8"?>
<!-- Generator: Adobe Illustrator 26.3.1, SVG Export Plug-In . SVG Version: 6.00 Build 0)  -->
<svg version="1.1" id="Layer_1" xmlns="http://www.w3.org/2000/svg" xmlns:xlink="http://www.w3.org/1999/xlink" x="0px" y="0px"
	 viewBox="0 0 598 286" style="enable-background:new 0 0 598 286;" xml:space="preserve">
<style type="text/css">
	.st0{fill:#C61D61;}
</style>
<path id="Shape_1_copy_2" class="st0" d="M485.6,172.7c-19.9,54-109.3,91.9-109.3,91.9c-24.5-6.3-48.3-15.4-70.7-27.1
	c-11.7,6.7-23.7,12.8-36,18.3c0,0-114.2-27.1-148.7-87.4c-26-45.4-13.9-101.2,27.1-124.7c33.8-19.4,76.7-10.6,105.3,18.5
	c23.3-33.5,64.2-49.3,100.8-35.9c19.1,7.1,34.7,21.3,43.8,39.5c-14.5,5.9-27,15.9-35.8,28.7c-23.7-24.1-59.2-31.4-87.1-15.3
	c-25.1,14.4-37.2,43.5-32.9,72.9c-0.6-25.9,11.4-50.3,33.7-63.1c28-16,63.5-8.8,87.2,15.3c19.3-27.7,53.1-40.8,83.4-29.7
	C482.9,88.1,500.5,132,485.6,172.7z"/>
</svg>
